<?xml version="1.0" standalone="no"?>
<!DOCTYPE svg PUBLIC "-//W3C//DTD SVG 20010904//EN"
 "http://www.w3.org/TR/2001/REC-SVG-20010904/DTD/svg10.dtd">
<svg version="1.0" xmlns="http://www.w3.org/2000/svg"
 width="659.000000pt" height="285.000000pt" viewBox="0 0 659.000000 285.000000"
 preserveAspectRatio="xMidYMid meet">

<g transform="translate(0.000000,285.000000) scale(0.100000,-0.100000)"
fill="#000000" stroke="none">
<path d="M2625 2476 c-12 -8 -33 -12 -57 -9 -39 6 -36 8 -100 -71 -20 -24 -31
-28 -73 -28 -28 0 -58 3 -67 7 -9 3 -25 2 -37 -4 -26 -15 -31 -14 -31 4 0 22
-48 68 -65 61 -7 -2 -31 4 -53 14 -22 11 -53 19 -68 19 -16 0 -43 3 -61 6 -20
5 -42 2 -61 -7 -19 -10 -36 -12 -52 -6 -30 11 -49 4 -102 -37 -27 -23 -77 -46
-137 -66 -87 -28 -98 -29 -147 -18 -42 10 -56 9 -68 0 -12 -11 -26 -10 -66 0
-39 10 -58 10 -80 2 -18 -7 -32 -7 -36 -2 -3 5 -15 9 -26 9 -29 0 -143 -117
-168 -172 -24 -53 -26 -104 -4 -112 29 -11 81 -6 94 9 7 8 22 15 33 15 11 0
30 9 42 20 18 17 26 18 58 9 20 -5 37 -14 37 -20 0 -5 11 -21 25 -35 18 -18
31 -23 50 -18 20 5 30 1 45 -19 30 -37 71 -51 138 -43 144 18 150 18 180 2 44
-22 52 -20 52 14 0 39 20 39 42 0 23 -41 44 -47 72 -21 l23 22 27 -35 c24 -32
26 -43 26 -127 l0 -91 -179 4 c-121 3 -184 8 -194 16 -12 10 -20 9 -44 -4 -40
-23 -72 -13 -133 41 -30 27 -56 43 -63 38 -7 -4 -29 -26 -50 -50 l-39 -43
-116 1 c-109 2 -112 2 -51 9 72 9 149 42 149 64 0 8 -18 30 -41 49 -42 36 -77
43 -101 19 -15 -15 -51 -15 -65 -1 -18 18 -84 15 -126 -4 -24 -12 -56 -17 -87
-16 -56 3 -90 -18 -90 -58 0 -25 11 -29 42 -12 11 6 23 7 27 3 13 -19 58 -34
96 -32 61 1 75 -1 75 -13 0 -7 -62 -10 -187 -9 -104 1 -306 1 -451 1 l-263 -1
23 -32 c35 -49 93 -105 130 -124 34 -18 59 -19 238 -12 87 4 115 9 163 31 33
16 75 27 100 27 36 0 46 -5 78 -42 35 -41 39 -43 91 -43 80 0 91 -13 84 -95
-3 -36 -8 -84 -12 -106 -7 -49 -5 -53 80 -167 36 -48 70 -105 76 -125 19 -70
12 -158 -21 -254 -40 -118 -32 -172 46 -293 20 -31 36 -74 43 -112 7 -41 32
-102 76 -187 36 -69 66 -136 66 -149 0 -33 28 -67 54 -67 13 0 43 7 66 15 23
8 74 15 112 15 79 0 81 1 197 113 67 66 94 109 105 170 6 32 13 40 47 54 53
21 72 58 64 126 -11 85 20 134 116 182 25 13 59 39 76 58 43 49 48 100 23 228
-31 160 -28 204 18 275 21 32 101 122 178 199 139 139 180 192 208 273 l15 42
-264 0 -265 0 0 74 c0 72 0 73 24 69 16 -4 28 2 39 17 17 25 26 26 149 14 59
-5 89 -3 127 10 27 9 66 16 85 16 19 0 38 5 41 10 3 6 25 10 49 10 31 0 69 14
147 53 57 29 118 54 134 55 39 2 85 52 85 91 0 34 -37 92 -67 106 -13 5 -28
22 -34 37 -6 15 -22 34 -35 43 -13 8 -24 22 -24 30 0 19 -39 45 -68 45 -14 0
-34 12 -49 30 -28 33 -75 40 -108 16z m-818 -294 c-10 -9 -23 -12 -34 -8 -16
7 -16 9 7 21 30 16 48 8 27 -13z m-162 -32 c19 0 28 -8 39 -35 9 -21 26 -39
43 -46 60 -24 71 -32 66 -45 -4 -10 -13 -10 -50 1 -25 8 -51 19 -56 24 -6 6
-23 11 -39 11 -21 0 -30 7 -42 33 -29 66 -28 139 1 82 9 -16 22 -25 38 -25z
m428 10 c4 -15 -2 -24 -24 -35 -24 -13 -29 -13 -29 -1 0 7 -7 20 -16 27 -15
12 -14 14 7 20 42 12 57 9 62 -11z m-509 -15 c-4 -8 -11 -12 -16 -9 -6 4 -5
10 3 15 19 12 19 11 13 -6z m189 8 c2 -5 7 -21 11 -36 6 -25 4 -28 -16 -25
-23 3 -34 28 -24 54 6 15 22 19 29 7z m117 -29 c8 -3 22 -8 30 -12 8 -3 -9 -9
-38 -14 -30 -6 -56 -7 -59 -5 -3 3 -2 20 2 37 7 30 8 31 28 15 12 -8 29 -18
37 -21z m490 24 c0 -5 -7 -8 -15 -8 -9 0 -26 -11 -38 -23 -14 -15 -38 -26 -66
-30 -32 -4 -40 -2 -32 6 6 6 11 21 11 32 0 12 2 24 4 26 8 7 136 4 136 -3z
m75 4 c15 -11 16 -76 2 -96 -12 -16 -16 -16 -69 5 -61 23 -68 44 -19 55 48 10
58 17 37 22 -15 3 -16 6 -5 13 17 11 41 11 54 1z m-960 -22 c3 -5 -1 -10 -10
-10 -9 0 -13 5 -10 10 3 6 8 10 10 10 2 0 7 -4 10 -10z m513 -28 l3 -32 -35
21 c-46 27 -48 51 -3 47 28 -3 32 -7 35 -36z m673 12 c12 -14 11 -16 -5 -13
-11 2 -21 10 -24 17 -5 17 13 15 29 -4z m-1133 -3 c11 -7 11 -9 -1 -14 -9 -3
-21 1 -27 9 -10 11 -10 14 1 14 8 0 20 -4 27 -9z m577 -1 c-3 -5 -12 -10 -18
-10 -7 0 -6 4 3 10 19 12 23 12 15 0z m58 -25 c-17 -14 -41 -41 -53 -60 -24
-39 -32 -42 -54 -19 -39 38 -3 74 94 94 19 4 37 8 40 9 3 0 -9 -10 -27 -24z
m564 -28 c-41 -54 -45 -57 -87 -57 -20 0 -42 -6 -48 -12 -7 -7 -32 -13 -55
-14 -23 0 -51 -4 -62 -9 -14 -6 -17 -5 -10 3 6 6 33 19 60 29 38 14 54 26 65
50 13 28 20 33 51 33 20 0 49 6 64 14 48 25 58 9 22 -37z m-1234 -2 c38 -38
38 -41 4 -24 -34 18 -57 41 -51 50 8 13 9 12 47 -26z m1297 26 c0 -13 -29 -41
-42 -41 -7 0 -1 11 12 25 26 27 30 30 30 16z m-843 -28 c10 -10 32 -34 48 -53
l30 -35 -33 30 c-29 26 -36 28 -60 19 -26 -10 -30 -8 -44 17 -10 17 -27 29
-45 32 -15 2 -3 5 28 6 42 1 62 -4 76 -16z m328 7 c-3 -5 -15 -10 -25 -10 -10
0 -22 5 -25 10 -4 6 7 10 25 10 18 0 29 -4 25 -10z m215 1 c0 -5 -9 -11 -20
-14 -20 -5 -26 3 -13 16 9 10 33 8 33 -2z m90 0 c0 -16 -29 -32 -90 -51 -52
-16 -70 -17 -115 -7 -40 8 -63 8 -92 -1 -74 -22 -120 -24 -127 -5 -11 28 22
45 72 37 34 -5 47 -3 63 12 18 16 24 16 52 5 86 -35 102 -36 154 -9 49 27 83
35 83 19z m-957 -31 c7 0 4 -5 -6 -11 -18 -11 -37 -5 -37 13 0 5 7 7 16 4 9
-3 21 -6 27 -6z m771 -46 c29 -4 46 -12 46 -20 0 -19 -108 -18 -132 0 -33 25
-3 32 86 20z m-1454 -174 c0 -5 -2 -10 -4 -10 -3 0 -8 5 -11 10 -3 6 -1 10 4
10 6 0 11 -4 11 -10z m197 -6 c-3 -3 -12 -4 -19 -1 -8 3 -5 6 6 6 11 1 17 -2
13 -5z"/>
<path d="M602 2404 c-16 -11 -34 -14 -62 -9 -40 7 -80 0 -80 -14 0 -4 16 -5
35 -3 22 3 45 -2 60 -12 33 -22 36 -21 68 19 30 37 19 47 -21 19z"/>
<path d="M729 2348 c-7 -12 -21 -30 -33 -40 -24 -20 -18 -23 17 -7 21 9 47 46
47 64 0 14 -21 2 -31 -17z"/>
<path d="M590 2235 c-42 -15 -51 -34 -13 -28 41 7 82 26 77 35 -7 10 -21 9
-64 -7z"/>
<path d="M329 1891 c24 -24 73 -37 65 -17 -6 15 -46 36 -69 36 -12 0 -11 -4 4
-19z"/>
<path d="M5415 1330 c-49 -51 -37 -69 23 -33 46 27 48 31 29 56 -11 16 -16 14
-52 -23z"/>
<path d="M5885 1330 c-49 -51 -37 -69 23 -33 46 27 48 31 29 56 -11 16 -16 14
-52 -23z"/>
<path d="M2940 1305 c0 -32 2 -35 30 -35 28 0 30 3 30 35 0 32 -2 35 -30 35
-28 0 -30 -3 -30 -35z"/>
<path d="M3220 1305 c0 -32 2 -35 30 -35 28 0 30 3 30 35 0 32 -2 35 -30 35
-28 0 -30 -3 -30 -35z"/>
<path d="M5134 1331 c-31 -14 -64 -60 -64 -90 1 -43 25 -74 81 -101 62 -30 79
-51 60 -74 -20 -24 -58 -20 -76 8 -13 19 -21 23 -42 17 -38 -10 -39 -25 -4
-63 27 -30 34 -33 86 -33 51 0 59 3 86 33 56 62 32 136 -55 172 -57 23 -74 43
-55 66 17 20 46 17 62 -6 13 -18 18 -19 41 -9 32 15 33 29 2 58 -26 25 -89 36
-122 22z"/>
<path d="M2391 1298 c-5 -18 -26 -87 -46 -153 -20 -66 -38 -126 -40 -132 -3
-9 7 -13 30 -13 29 0 34 4 40 30 6 28 9 30 56 30 47 0 50 -2 56 -30 5 -27 9
-30 44 -30 l38 0 -20 68 c-11 37 -32 111 -47 165 l-27 97 -37 0 c-32 0 -38 -4
-47 -32z m57 -109 c16 -69 16 -69 -19 -69 -27 0 -30 3 -26 23 3 12 9 39 12 60
4 20 10 37 14 37 4 0 13 -23 19 -51z"/>
<path d="M3070 1290 c0 -29 -4 -40 -15 -40 -9 0 -15 -9 -15 -25 0 -16 6 -25
15 -25 12 0 15 -17 15 -90 0 -84 2 -91 24 -105 14 -9 37 -15 53 -13 22 2 29 9
31 30 3 21 -1 27 -20 30 -21 3 -23 8 -26 76 -3 71 -3 72 23 72 20 0 25 5 25
25 0 20 -5 25 -25 25 -22 0 -25 4 -25 40 0 38 -2 40 -30 40 -28 0 -30 -2 -30
-40z"/>
<path d="M3630 1318 c0 -7 16 -82 37 -165 l37 -153 41 0 40 0 41 165 41 165
-32 0 -32 0 -23 -115 c-13 -63 -27 -115 -30 -115 -4 0 -12 30 -19 68 -31 166
-29 162 -67 162 -20 0 -34 -5 -34 -12z"/>
<path d="M6500 1165 l0 -165 30 0 30 0 0 165 0 165 -30 0 -30 0 0 -165z"/>
<path d="M4669 1276 c-10 -20 -16 -23 -48 -19 -49 7 -101 -19 -102 -50 -2 -35
2 -51 16 -66 11 -11 10 -16 -6 -32 -23 -23 -25 -52 -4 -69 13 -11 12 -14 -7
-29 -33 -27 -18 -67 31 -82 50 -15 126 -4 152 22 24 24 25 81 3 100 -9 8 -43
19 -76 24 -32 6 -60 14 -61 20 -1 5 20 13 46 17 71 10 90 31 83 90 -6 39 -4
48 9 48 9 0 15 9 15 25 0 33 -36 34 -51 1z m-44 -91 c0 -20 -6 -31 -17 -33
-17 -3 -27 21 -20 51 7 30 37 16 37 -18z m23 -174 c8 -5 12 -17 10 -27 -2 -14
-13 -20 -46 -22 -44 -3 -61 11 -48 43 6 16 62 20 84 6z"/>
<path d="M6179 1276 c-10 -20 -16 -23 -48 -19 -49 7 -101 -19 -102 -50 -2 -35
2 -51 16 -66 11 -11 10 -16 -6 -32 -23 -23 -25 -52 -4 -69 13 -11 12 -14 -7
-29 -33 -27 -18 -67 31 -82 50 -15 126 -4 152 22 24 24 25 81 3 100 -9 8 -43
19 -76 24 -32 6 -60 14 -61 20 -1 5 20 13 46 17 71 10 90 31 83 90 -6 39 -4
48 9 48 9 0 15 9 15 25 0 33 -36 34 -51 1z m-44 -91 c0 -20 -6 -31 -17 -33
-17 -3 -27 21 -20 51 7 30 37 16 37 -18z m23 -174 c8 -5 12 -17 10 -27 -2 -14
-13 -20 -46 -22 -44 -3 -61 11 -48 43 6 16 62 20 84 6z"/>
<path d="M2672 1244 c-12 -8 -22 -10 -22 -5 0 6 -13 11 -30 11 l-30 0 0 -125
0 -125 30 0 30 0 0 86 c0 88 10 124 35 124 12 0 15 -19 15 -105 l0 -105 35 0
34 0 3 103 c3 94 4 102 23 102 19 0 20 -8 23 -102 l3 -103 34 0 35 0 0 99 c0
55 -4 111 -10 125 -12 33 -55 44 -90 24 -23 -13 -29 -13 -45 -2 -25 18 -45 18
-73 -2z"/>
<path d="M3373 1250 c-59 -25 -76 -175 -25 -232 20 -24 76 -33 111 -18 31 12
57 52 47 69 -12 20 -53 13 -59 -10 -4 -15 -12 -20 -29 -17 -18 2 -24 10 -26
36 l-3 32 62 0 62 0 -5 51 c-3 32 -12 58 -25 70 -22 23 -79 33 -110 19z m65
-52 c7 -7 12 -20 12 -30 0 -13 -8 -18 -30 -18 -25 0 -30 4 -30 23 0 37 24 49
48 25z"/>
<path d="M3924 1251 c-40 -17 -54 -50 -54 -128 0 -62 3 -76 24 -100 20 -23 32
-28 71 -28 39 0 51 5 71 28 21 24 24 38 24 102 0 62 -4 78 -22 100 -25 28 -79
40 -114 26z m61 -126 c0 -73 -2 -80 -20 -80 -18 0 -20 8 -23 69 -3 81 1 99 25
94 15 -3 18 -15 18 -83z"/>
<path d="M4323 1250 c-18 -8 -43 -38 -43 -53 0 -3 12 -8 27 -12 19 -4 29 -2
35 9 10 17 48 22 48 7 0 -5 3 -16 6 -24 4 -11 -5 -17 -37 -22 -23 -4 -53 -18
-66 -31 -46 -46 -19 -134 42 -134 14 0 34 9 45 20 16 16 20 17 20 5 0 -10 10
-15 33 -15 l32 0 -3 110 c-3 104 -5 111 -29 130 -27 21 -72 25 -110 10z m72
-152 c-4 -13 -9 -31 -12 -41 -7 -26 -37 -17 -41 13 -4 24 19 50 46 50 9 0 11
-7 7 -22z"/>
<path d="M4793 1250 c-59 -25 -76 -175 -25 -232 20 -24 76 -33 111 -18 31 12
57 52 47 69 -12 20 -53 13 -59 -10 -4 -15 -12 -20 -29 -17 -18 2 -24 10 -26
36 l-3 32 62 0 62 0 -5 51 c-3 32 -12 58 -25 70 -22 23 -79 33 -110 19z m65
-52 c7 -7 12 -20 12 -30 0 -13 -8 -18 -30 -18 -25 0 -30 4 -30 23 0 37 24 49
48 25z"/>
<path d="M5371 1247 c-36 -21 -50 -56 -51 -122 0 -78 24 -121 75 -131 61 -11
127 31 111 72 -9 22 -53 17 -59 -7 -4 -15 -12 -20 -29 -17 -18 2 -24 10 -26
36 l-3 32 66 0 c57 0 66 2 61 16 -3 9 -6 29 -6 44 0 63 -83 109 -139 77z m73
-53 c13 -33 6 -44 -24 -44 -19 0 -30 5 -30 14 0 27 12 46 30 46 10 0 21 -7 24
-16z"/>
<path d="M5642 1244 c-12 -8 -22 -10 -22 -5 0 6 -13 11 -30 11 l-30 0 0 -125
0 -125 30 0 30 0 0 88 c0 94 13 131 44 119 13 -5 16 -23 16 -107 l0 -100 36 0
36 0 -4 116 c-3 100 -6 118 -23 130 -25 18 -55 18 -83 -2z"/>
<path d="M5841 1247 c-36 -21 -50 -56 -51 -122 0 -78 24 -121 75 -131 61 -11
127 31 111 72 -9 22 -53 17 -59 -7 -4 -15 -12 -20 -29 -17 -18 2 -24 10 -26
36 l-3 32 66 0 c57 0 66 2 61 16 -3 9 -6 29 -6 44 0 63 -83 109 -139 77z m73
-53 c13 -33 6 -44 -24 -44 -19 0 -30 5 -30 14 0 27 12 46 30 46 10 0 21 -7 24
-16z"/>
<path d="M6303 1250 c-18 -8 -43 -38 -43 -53 0 -3 12 -8 27 -12 19 -4 29 -2
35 9 10 17 48 22 48 7 0 -5 3 -16 6 -24 4 -11 -5 -17 -37 -22 -23 -4 -53 -18
-66 -31 -46 -46 -19 -134 42 -134 14 0 34 9 45 20 16 16 20 17 20 5 0 -10 10
-15 33 -15 l32 0 -3 110 c-3 104 -5 111 -29 130 -27 21 -72 25 -110 10z m72
-152 c-4 -13 -9 -31 -12 -41 -7 -26 -37 -17 -41 13 -4 24 19 50 46 50 9 0 11
-7 7 -22z"/>
<path d="M2940 1125 l0 -125 30 0 30 0 0 125 0 125 -30 0 -30 0 0 -125z"/>
<path d="M3220 1125 l0 -125 30 0 30 0 0 125 0 125 -30 0 -30 0 0 -125z"/>
<path d="M4108 1131 c19 -66 32 -126 29 -135 -4 -9 -18 -16 -32 -16 -20 0 -25
-5 -25 -25 0 -29 19 -40 55 -31 32 8 40 24 90 188 l43 139 -31 -3 c-29 -3 -31
-6 -47 -73 l-16 -70 -13 60 c-18 86 -17 85 -55 85 l-34 0 36 -119z"/>
<path d="M2590 881 c0 -20 -64 -83 -124 -123 -80 -53 -96 -74 -96 -124 0 -23
-11 -72 -25 -108 -31 -83 -31 -117 -2 -152 20 -22 29 -26 52 -20 68 17 147
151 190 322 26 99 33 198 15 209 -5 3 -10 2 -10 -4z"/>
</g>
</svg>
